<svg xmlns="http://www.w3.org/2000/svg" xmlns:xlink="http://www.w3.org/1999/xlink" viewBox="0,0,256,256" width="48px" height="48px" fill-rule="nonzero"><g fill="none" fill-rule="nonzero" stroke="none" stroke-width="none" stroke-linecap="none" stroke-linejoin="none" stroke-miterlimit="10" stroke-dasharray="" stroke-dashoffset="0" font-family="none" font-weight="none" font-size="none" text-anchor="none" style="mix-blend-mode: normal"><g transform="scale(5.33333,5.33333)"><path d="M21,46h15c5.5,0 10,-4.5 10,-10v-15c0,-5.5 -4.5,-10 -10,-10h-15c-5.5,0 -10,4.5 -10,10v15c0,5.5 4.5,10 10,10z" fill="#f66f90" stroke="none" stroke-width="1" stroke-linecap="butt" stroke-linejoin="miter"></path><path d="M41.5,21.1v-4.6c0,-5.5 -4.5,-10 -10,-10h-15c-5.5,0 -10,4.5 -10,10v3" fill="none" stroke="#18193f" stroke-width="3" stroke-linecap="round" stroke-linejoin="round"></path><path d="M6.5,25.6v5.9c0,5.5 4.5,10 10,10h15c5.5,0 10,-4.5 10,-10v-4.6" fill="none" stroke="#18193f" stroke-width="3" stroke-linecap="round" stroke-linejoin="round"></path><path d="M24,15.5c-4.7,0 -8.5,3.8 -8.5,8.5c0,4.7 3.8,8.5 8.5,8.5c4.7,0 8.5,-3.8 8.5,-8.5c0,-4.7 -3.8,-8.5 -8.5,-8.5z" fill="none" stroke="#18193f" stroke-width="3" stroke-linecap="butt" stroke-linejoin="miter"></path><path d="M34,12c-1.1,0 -2,0.9 -2,2c0,1.1 0.9,2 2,2c1.1,0 2,-0.9 2,-2c0,-1.1 -0.9,-2 -2,-2z" fill="#18193f" stroke="none" stroke-width="1" stroke-linecap="butt" stroke-linejoin="miter"></path></g></g></svg>