<?xml version="1.0" standalone="no"?>
<!DOCTYPE svg PUBLIC "-//W3C//DTD SVG 20010904//EN"
 "http://www.w3.org/TR/2001/REC-SVG-20010904/DTD/svg10.dtd">
<svg version="1.0"
        xmlns="http://www.w3.org/2000/svg" width="40.000000pt" height="40.000000pt" viewBox="0 0 200.000000 200.000000" preserveAspectRatio="xMidYMid meet">

        <g transform="translate(0.000000,200.000000) scale(0.100000,-0.100000)" fill="#f567ca" stroke="none">
                <path d="M970 1803 c-52 -8 -157 -46 -213 -75 -140 -75 -254 -238 -278 -398
-32 -209 105 -462 302 -559 72 -35 179 -61 255 -61 45 0 73 4 181 26 32 6 76
24 72 28 -2 3 -29 -2 -59 -10 -238 -62 -504 101 -585 358 -96 305 81 607 386
658 222 38 487 -67 633 -249 52 -65 64 -75 45 -38 -21 39 -173 181 -232 216
-75 44 -164 79 -245 96 -62 14 -204 18 -262 8z"/>
                <path d="M391 1276 c-143 -208 -147 -497 -9 -731 50 -84 172 -207 251 -254
268 -158 622 -127 821 73 67 67 128 173 146 252 19 81 14 196 -10 269 -24 72
-80 163 -132 212 -48 46 -144 101 -214 123 -73 22 -210 38 -201 23 4 -6 32
-13 62 -16 164 -17 326 -164 379 -346 20 -69 21 -199 1 -276 -45 -172 -181
-306 -360 -356 -70 -19 -216 -17 -295 4 -119 31 -226 93 -316 182 -142 140
-203 273 -211 460 -5 92 -2 123 16 188 21 77 49 140 92 205 32 48 15 39 -20
-12z"/>
                <path d="M988 1233 c7 -3 16 -2 19 1 4 3 -2 6 -13 5 -11 0 -14 -3 -6 -6z"/>
                <path d="M1003 1100 c-24 -10 -38 -47 -29 -77 3 -10 31 -43 61 -73 l55 -54 45
44 c61 60 78 92 65 125 -5 14 -21 30 -35 37 -21 10 -30 8 -53 -9 -27 -20 -28
-20 -51 -2 -26 21 -27 21 -58 9z"/>
        </g>
</svg>
