<svg id="eHXScZh2BrE1"
    xmlns="http://www.w3.org/2000/svg"
    xmlns:xlink="http://www.w3.org/1999/xlink" viewBox="0 0 1920 1080" shape-rendering="geometricPrecision" text-rendering="geometricPrecision" project-id="3b4f5e42e7eb43ea914bfa9f6af2abbd" export-id="e9d193c2d9c840b5a54b8e498aa75dd7" cached="false">
    <defs>
        <linearGradient id="eHXScZh2BrE5-fill" x1="960" y1="376.07" x2="960" y2="565.37" spreadMethod="pad" gradientUnits="userSpaceOnUse" gradientTransform="translate(0 0)">
            <stop id="eHXScZh2BrE5-fill-0" offset="0%" stop-color="#fda2b2"/>
            <stop id="eHXScZh2BrE5-fill-1" offset="100%" stop-color="#f36186"/>
        </linearGradient>
        <linearGradient id="eHXScZh2BrE6-fill" x1="959.51" y1="365.65" x2="959.51" y2="574.76" spreadMethod="pad" gradientUnits="userSpaceOnUse" gradientTransform="translate(0 0)">
            <stop id="eHXScZh2BrE6-fill-0" offset="0%" stop-color="#fda2b2"/>
            <stop id="eHXScZh2BrE6-fill-1" offset="100%" stop-color="#f36186"/>
        </linearGradient>
        <linearGradient id="eHXScZh2BrE7-fill" x1="938.11" y1="365.65" x2="938.11" y2="574.76" spreadMethod="pad" gradientUnits="userSpaceOnUse" gradientTransform="translate(0 0)">
            <stop id="eHXScZh2BrE7-fill-0" offset="0%" stop-color="#fda2b2"/>
            <stop id="eHXScZh2BrE7-fill-1" offset="100%" stop-color="#f36186"/>
        </linearGradient>
        <linearGradient id="eHXScZh2BrE8-fill" x1="959.51" y1="258.66" x2="959.51" y2="670.77" spreadMethod="pad" gradientUnits="userSpaceOnUse" gradientTransform="translate(0 0)">
            <stop id="eHXScZh2BrE8-fill-0" offset="0%" stop-color="#fda2b2"/>
            <stop id="eHXScZh2BrE8-fill-1" offset="100%" stop-color="#f36186"/>
        </linearGradient>
    </defs>
    <g transform="matrix(4.097974 0 0 4.006616-2990.782271-1365.63649)">
        <g>
            <g>
                <path d="M960,567.87c-126.77-3.82-126.73-188,0-191.8c126.77,3.82,126.73,188,0,191.8Zm0-180.36c-111,1.99-110.98,166.94,0,168.92c110.99-1.99,110.98-166.94,0-168.92Z" fill="url(#eHXScZh2BrE5-fill)" stroke-width="0"/>
                <path d="M1012.12,484.49c22.57,30.17-13.1,70.02-45.72,50.48l10.4-8.94c19.48,7.72,38.16-16.21,25.72-33.27L957.41,531.6c-6.52,5.63-14.59,8.4-22.62,8.4-18.16.73-35.41-16.48-34.69-34.67-.77-6.01,2.17-12.89,6.93-19.93l-7.89-7.98c-34.37-36.29,15.99-89.88,54.64-56.18v0c11.49,11.99,32.71,35.38,44.17,47.64l-9.58,8.26v0c-10.31-11.15-31.51-34.12-41.73-45.17-4.94-5.38-11.85-8.47-19.23-8.54-22.93-.84-35.3,28.19-20.11,44.36l.02-.03l7.52,7.52c10.89-12.68,24.71-24.83,30.41-32.41l8.6,9.31-35.28,38.18c-7.92,8.58-7.78,21.88.34,30.28c8.13,8.41,21.42,8.99,30.25,1.38c4.44-3.8,41.67-35.91,44.94-38.71c3.52-3.09,11.84-10.16,15.29-13.18c26.36-24.19-8.42-63.11-35.41-39.63l-8.58-9.28c24.51-23.92,68.29-3.64,65.83,30.57-.28,13.62-8.55,24.78-19.11,32.68v.02Z" fill="url(#eHXScZh2BrE6-fill)" stroke-width="0"/>
            </g>
            <path d="M923.09,498.31l20.35,17.51c.2-.15,9.47-8.16,9.69-8.34l-21.66-18.66c-1.37,1.61-7.46,7.72-8.37,9.48l-.01.01Z" fill="url(#eHXScZh2BrE7-fill)" stroke-width="0"/>
        </g>
        <path d="M976.77,485.63c-2.07,1.88-14.67,13.37-17.26,15.73-2.59-2.36-15.19-13.85-17.26-15.73-11.99-12.73,7.61-28.73,17.26-13.14c9.64-15.59,29.25.41,17.26,13.14Z" fill="url(#eHXScZh2BrE8-fill)" stroke-width="0"/>
    </g>
</svg>
