<?xml version="1.0" standalone="no"?>
<!DOCTYPE svg PUBLIC "-//W3C//DTD SVG 20010904//EN"
 "http://www.w3.org/TR/2001/REC-SVG-20010904/DTD/svg10.dtd">
<svg version="1.0"
    xmlns="http://www.w3.org/2000/svg" width="200.000000pt" height="200.000000pt" viewBox="0 0 200.000000 200.000000" preserveAspectRatio="xMidYMid meet">

    <g transform="translate(0.000000,200.000000) scale(0.100000,-0.100000)" fill="pink" stroke="none">
        <path d="M973 1556 c-136 -33 -291 -152 -356 -273 -58 -109 -84 -289 -53 -376
29 -79 112 -157 190 -178 84 -23 227 -5 281 35 17 13 13 12 -25 -1 -25 -9 -77
-16 -115 -17 -58 0 -81 5 -127 27 -135 66 -205 223 -168 375 15 65 81 130 178
175 60 28 77 31 162 32 52 0 111 -3 130 -7 l35 -7 -35 16 c-98 43 -243 34
-355 -23 -59 -30 -67 -32 -50 -13 102 116 250 190 421 210 75 8 196 1 249 -16
11 -4 8 1 -7 9 -71 42 -248 58 -355 32z"/>
        <path d="M1110 1336 c0 -2 7 -7 16 -10 8 -3 12 -2 9 4 -6 10 -25 14 -25 6z"/>
        <path d="M1035 1276 c-42 -13 -125 -54 -125 -61 0 -2 21 5 46 16 25 12 78 23
118 26 99 8 164 -14 226 -76 51 -52 70 -100 70 -182 0 -151 -158 -314 -343
-354 -57 -12 -59 -13 -22 -14 95 -2 208 40 303 110 28 22 52 36 52 32 0 -4 19
30 42 76 47 96 60 188 38 257 -20 58 -102 140 -167 164 -62 23 -175 26 -238 6z"/>
        <path d="M832 1153 c-65 -62 -80 -100 -68 -167 8 -41 42 -94 76 -115 l25 -15
-21 24 c-80 92 -70 212 23 289 20 17 34 33 31 36 -3 3 -33 -20 -66 -52z"/>
        <path d="M1078 1185 c101 -52 135 -168 79 -270 -22 -39 -24 -45 -8 -31 31 28
61 98 61 141 0 84 -66 164 -150 180 -32 6 -30 4 18 -20z"/>
        <path d="M889 1070 c-22 -13 -31 -53 -20 -83 5 -14 34 -51 65 -83 l55 -59 51
50 c82 80 102 138 58 169 -32 23 -64 20 -85 -8 l-19 -24 -21 24 c-22 25 -56
30 -84 14z"/>
        <path d="M1321 710 c-46 -70 -113 -124 -216 -175 -112 -54 -172 -68 -294 -68
l-96 -1 50 -12 c162 -39 345 11 469 130 52 51 133 162 124 171 -2 3 -19 -17
-37 -45z"/>
    </g>
</svg>
